#!OML:ASF F:\VICON\USERDATA\INSTALL\rory3\rory3.ASF
:FULLY-SPECIFIED
:DEGREES
434
root -7.81883 16.0784 15.9223 6.50799 -13.6359 5.98526
lowerback 28.1334 -0.489206 1.42588
upperback 6.03964 -0.0303648 2.4158
thorax -8.78262 -0.0517121 1.89422
lowerneck -17.5728 0.347721 -3.85763
upperneck 13.1718 1.88613 -2.663
head 6.91101 0.458372 -0.0364477
rclavicle 8.74653e-015 -7.95139e-015
rhumerus -29.8212 -30.5887 -55.6594
rradius 75.4991
rwrist 27.8795
rhand -34.3676 -11.622
rfingers 7.12502
rthumb -7.53437 -41.4678
lclavicle 8.74653e-015 -7.95139e-015
lhumerus -36.5403 19.4581 65.7814
lradius 63.3857
lwrist -9.45714
lhand -30.8727 43.6813
lfingers 7.12502
lthumb -4.16023 73.6204
rfemur -40.9982 5.82742 12.3719
rtibia 75.6584
rfoot -20.6021 15.2187
rtoes 9.40305
lfemur -56.1551 -1.18933 -7.02021
ltibia 42.8295
lfoot 17.1454 -13.0353
ltoes -24.4682
435
root -7.7607 16.0697 15.9967 6.38809 -14.1767 6.23488
lowerback 28.1847 -0.563134 1.375
upperback 6.03572 -0.137616 2.44105
thorax -8.80981 -0.101787 1.99035
lowerneck -18.0526 0.170571 -4.50376
upperneck 13.8655 1.74541 -1.98015
head 7.207 0.398525 0.277255
rclavicle -2.14687e-014 1.27222e-014
rhumerus -29.6531 -30.6796 -55.6434
rradius 75.2437
rwrist 27.95
rhand -34.7205 -10.1459
rfingers 7.12502
rthumb -7.87503 -39.9792
lclavicle -2.14687e-014 1.27222e-014
lhumerus -36.6641 19.5213 65.9639
lradius 63.5143
lwrist -9.58676
lhand -30.3473 44.1026
lfingers 7.12502
lthumb -3.65284 74.051
rfemur -41.0037 5.95797 11.7192
rtibia 75.8968
rfoot -20.5935 15.7989
rtoes 9.42337
lfemur -55.728 -1.35504 -7.01005
ltibia 41.8347
lfoot 17.6746 -14.0727
ltoes -25.7116
436
root -7.70629 16.0513 16.0723 6.33693 -14.8725 6.42221
lowerback 28.0707 -0.471958 1.51111
upperback 5.70454 0.0247239 2.44363
thorax -9.13202 -0.0275117 1.86193
lowerneck -16.2971 0.0129552 -5.05368
upperneck 13.3795 1.49655 -1.74697
head 6.74945 0.29722 0.409472
rclavicle -1.59028e-015 3.49861e-014
rhumerus -30.832 -30.5041 -54.7375
rradius 75.2647
rwrist 27.8117
rhand -34.7071 -9.48809
rfingers 7.12502
rthumb -7.86208 -39.3219
lclavicle -1.59028e-015 3.49861e-014
lhumerus -37.3461 18.7092 66.1758
lradius 63.7631
lwrist -9.33652
lhand -30.0971 43.8474
lfingers 7.12502
lthumb -3.41126 73.7999
rfemur -41.1098 6.27868 11.1506
rtibia 76.1681
rfoot -20.8311 16.0419
rtoes 8.72097
lfemur -55.4085 -1.36994 -6.92949
ltibia 40.8691
lfoot 18.3035 -15.4337
ltoes -26.7868
437
root -7.65262 16.0239 16.147 6.1689 -15.7804 6.65729
lowerback 28.1025 -0.321917 1.40201
upperback 5.69788 0.171057 2.34245
thorax -9.15871 0.0408834 1.76095
lowerneck -15.4789 -0.0317736 -5.09604
upperneck 12.8897 1.37873 -1.77875
head 6.45505 0.254285 0.391198
rclavicle 5.40694e-014 3.49861e-014
rhumerus -31.4008 -30.4562 -54.4855
rradius 75.5562
rwrist 27.533
rhand -34.3596 -10.2611
rfingers 7.12502
rthumb -7.52666 -40.1072
lclavicle 5.40694e-014 3.49861e-014
lhumerus -37.2767 18.3981 66.2934
lradius 63.7651
lwrist -9.72477
lhand -29.3668 43.9076
lfingers 7.12502
lthumb -2.70596 73.8701
rfemur -41.2531 6.82747 10.5259
rtibia 76.4859
rfoot -20.9277 16.2929
rtoes 8.03574
lfemur -54.9742 -1.40989 -6.70946
ltibia 39.9971
lfoot 19.191 -16.2908
ltoes -24.8698
438
root -7.59527 15.9928 16.2245 6.08048 -16.5843 6.58139
lowerback 28.1655 -0.321861 1.5987
upperback 5.81945 0.215399 2.30685
thorax -9.05208 0.0537458 1.59126
lowerneck -16.9223 0.181826 -4.12614
upperneck 14.1237 1.73212 -2.7005
head 7.11223 0.346617 -0.0222998
rclavicle 1.66979e-014 -1.27222e-014
rhumerus -31.4024 -30.3646 -54.6484
rradius 75.6969
rwrist 27.4478
rhand -34.477 -11.0015
rfingers 7.12502
rthumb -7.63996 -40.8435
lclavicle 1.66979e-014 -1.27222e-014
lhumerus -37.0097 18.3712 66.2875
lradius 63.747
lwrist -10.6342
lhand -27.4981 45.7539
lfingers 7.12502
lthumb -0.90119 75.7318
rfemur -41.2532 7.30057 10.263
rtibia 76.7649
rfoot -20.989 16.4185
rtoes 8.22633
lfemur -54.566 -1.34732 -6.28348
ltibia 39.2487
lfoot 19.7807 -17.8591
ltoes -26.0319
439
root -7.53812 15.9711 16.2994 5.98061 -17.1273 6.51184
lowerback 28.3343 -0.403489 1.82231
upperback 5.87338 0.179361 2.35185
thorax -9.0734 0.0300404 1.52698
lowerneck -17.3432 0.287824 -3.85885
upperneck 14.4209 1.9084 -3.05134
head 7.28738 0.399988 -0.159942
rclavicle -3.18055e-014 1.74931e-014
rhumerus -31.3636 -30.3587 -54.7501
rradius 75.7111
rwrist 27.5145
rhand -34.6512 -10.8438
rfingers 7.12502
rthumb -7.80808 -40.6797
lclavicle -3.18055e-014 1.74931e-014
lhumerus -36.8754 18.2956 66.4555
lradius 63.6889
lwrist -10.8935
lhand -25.6615 47.574
lfingers 7.12502
lthumb 0.872717 77.552
rfemur -41.069 7.48174 10.0365
rtibia 76.976
rfoot -21.3997 16.4376
rtoes 7.85678
lfemur -54.2011 -1.42225 -6.0079
ltibia 38.5915
lfoot 20.8793 -19.266
ltoes -28.1485
440
root -7.47674 15.9471 16.3704 5.96991 -17.5853 6.62141
lowerback 28.4407 -0.479374 1.9561
upperback 5.87361 0.122457 2.35642
thorax -9.12459 -0.000938185 1.47651
lowerneck -17.2268 0.218442 -3.99982
upperneck 14.1538 1.8175 -2.97475
head 7.17827 0.364393 -0.122495
rclavicle 0 6.36111e-015
rhumerus -31.3953 -30.6067 -54.7848
rradius 75.7364
rwrist 27.579
rhand -34.7115 -10.5014
rfingers 7.12502
rthumb -7.86637 -40.335
lclavicle 0 6.36111e-015
lhumerus -36.6552 18.0345 66.7302
lradius 63.6262
lwrist -10.8172
lhand -25.7183 47.4518
lfingers 7.12502
lthumb 0.817804 77.43
rfemur -41.162 7.40044 9.58948
rtibia 77.2401
rfoot -21.7488 16.5435
rtoes 6.22532
lfemur -54.0613 -1.59348 -5.9252
ltibia 38.0588
lfoot 22.3525 -20.2729
ltoes -28.1763
441
root -7.41764 15.9165 16.4419 6.02349 -18.0741 6.67108
lowerback 28.5813 -0.494892 2.0439
upperback 5.86525 0.136077 2.40892
thorax -9.20384 0.00237146 1.48238
lowerneck -17.1447 0.161616 -4.0526
upperneck 13.8789 1.73728 -2.97695
head 7.0744 0.331202 -0.123714
rclavicle -2.38542e-015 3.18055e-015
rhumerus -31.4648 -30.8335 -54.7047
rradius 75.7564
rwrist 27.6954
rhand -34.6639 -10.9024
rfingers 7.12502
rthumb -7.82035 -40.7377
lclavicle -2.38542e-015 3.18055e-015
lhumerus -36.3221 17.8431 67.0208
lradius 63.5182
lwrist -11.2771
lhand -27.9705 44.0999
lfingers 7.12502
lthumb -1.35738 74.0754
rfemur -41.3898 7.41682 9.19375
rtibia 77.4352
rfoot -22.0121 16.7411
rtoes 5.28657
lfemur -54.2684 -1.6339 -5.80838
ltibia 38.276
lfoot 23.627 -21.5624
ltoes -27.7855
442
root -7.35896 15.8876 16.5205 5.98403 -18.55 6.77446
lowerback 28.7304 -0.537502 1.97087
upperback 5.87043 0.0728823 2.50236
thorax -9.27157 -0.0258536 1.65469
lowerneck -17.1282 0.159737 -4.16098
upperneck 13.7903 1.75424 -2.9649
head 7.04189 0.337026 -0.100537
rclavicle 1.11319e-014 -2.8625e-014
rhumerus -31.363 -30.8194 -54.6486
rradius 75.6389
rwrist 27.6193
rhand -34.5736 -10.5293
rfingers 7.12502
rthumb -7.73326 -40.3679
lclavicle 1.11319e-014 -2.8625e-014
lhumerus -36.1317 17.8128 67.31
lradius 63.5006
lwrist -11.3961
lhand -31.3976 37.037
lfingers 7.12502
lthumb -4.66705 66.9655
rfemur -41.3546 7.47748 8.72425
rtibia 77.5292
rfoot -22.2223 16.9927
rtoes 5.75532
lfemur -54.404 -1.87287 -5.63197
ltibia 38.9383
lfoot 24.1918 -22.8153
ltoes -26.4809
443
root -7.30123 15.946 16.5813 6.01473 -19.001 6.58279
lowerback 28.8114 -0.672045 2.21495
upperback 5.9111 -0.0157649 2.63133
thorax -9.26351 -0.0737365 1.69166
lowerneck -17.2182 0.0775352 -4.28532
upperneck 13.8708 1.667 -2.87971
head 7.08233 0.293073 -0.0621877
rclavicle -6.36111e-015 -1.74931e-014
rhumerus -30.9913 -31.0139 -54.7746
rradius 75.2193
rwrist 27.6477
rhand -34.4823 -9.79735
rfingers 7.12502
rthumb -7.6451 -39.6392
lclavicle -6.36111e-015 -1.74931e-014
lhumerus -35.922 17.7897 67.5872
lradius 63.3647
lwrist -11.3143
lhand -28.6629 43.885
lfingers 7.12502
lthumb -2.02614 73.8552
rfemur -40.9608 7.63668 8.63569
rtibia 77.286
rfoot -22.3058 17.1833
rtoes 6.02782
lfemur -53.9734 -1.46372 -6.07015
ltibia 39.4618
lfoot 16.4421 -29.9547
ltoes -40.1843
444
root -7.24046 15.9533 16.6499 6.04434 -19.5813 6.45968
lowerback 28.8074 -0.678044 2.435
upperback 6.02504 0.0390067 2.70944
thorax -9.13191 -0.0547583 1.63122
lowerneck -17.2452 -0.163067 -4.43061
upperneck 13.7968 1.35049 -2.73894
head 7.06254 0.148414 -0.0275798
rclavicle -1.43125e-014 -1.59028e-014
rhumerus -30.7766 -31.4901 -54.8089
rradius 75.0369
rwrist 27.895
rhand -34.3946 -10.1393
rfingers 7.12502
rthumb -7.56041 -39.9842
lclavicle -1.43125e-014 -1.59028e-014
lhumerus -35.5388 17.4593 68.024
lradius 63.337
lwrist -11.0698
lhand -29.788 43.475
lfingers 7.12502
lthumb -3.11275 73.432
rfemur -40.8447 7.85438 8.42616
rtibia 77.2665
rfoot -22.4176 17.3652
rtoes 5.88817
lfemur -53.7144 -1.30537 -6.14879
ltibia 39.8422
lfoot 12.4748 -32.3954
ltoes -44.2358
445
root -7.16631 15.8137 16.7528 6.05595 -20.3721 6.65543
lowerback 28.9132 -0.53733 2.24779
upperback 6.0349 0.166551 2.74334
thorax -9.17558 0.0074589 1.73393
lowerneck -17.0501 -0.380566 -4.31669
upperneck 13.4244 1.02543 -2.88791
head 6.91196 -0.00349567 -0.129333
rclavicle 1.03368e-014 1.74931e-014
rhumerus -30.828 -31.7196 -54.6807
rradius 75.0544
rwrist 27.8804
rhand -34.5215 -10.4689
rfingers 7.12502
rthumb -7.68293 -40.3093
lclavicle 1.03368e-014 1.74931e-014
lhumerus -35.3355 17.1377 68.4556
lradius 63.4404
lwrist -10.7471
lhand -31.3051 40.6066
lfingers 7.12502
lthumb -4.5778 70.5372
rfemur -41.4215 7.99247 7.68849
rtibia 77.9791
rfoot -22.769 17.8621
rtoes 5.66675
lfemur -53.9619 -2.23409 -5.04097
ltibia 39.6405
lfoot 23.9207 -24.87
ltoes -24.4077
